#N canvas 467 150 726 555 10;
#X obj 153 362 vae_sampler~;
#X obj 153 416 *~;
#X obj 196 390 hsl 128 15 0 1 0 0 empty empty empty -2 -8 0 10 -262144
-1 -1 3200 1;
#X obj 153 442 dac~;
#X obj 153 72 openpanel;
#X msg 153 94 load \$1;
#X obj 153 49 ggee/getdir;
#X obj 153 27 bng 15 250 50 0 empty empty empty 17 7 0 10 -262144 -1
-1;
#X text 229 47 (Start in the patch's directory);
#X text 229 71 Choose a model file to load;
#X text 229 94 load symbol : Loads the model from a file;
#X obj 172 152 keyboard.mmb;
#X obj 172 251 spigot;
#X obj 172 225 unpack f f;
#X obj 172 276 mtof;
#X msg 172 335 play 10 5.2 3.1 70 \$1;
#X text 320 330 play x0 x1 x2 x3 nu : plays a sample with coordinates
(x0 \, x1 \, x2 \, x3) and reduced frequency nu;
#X connect 0 0 1 0;
#X connect 1 0 3 0;
#X connect 1 0 3 1;
#X connect 2 0 1 1;
#X connect 4 0 5 0;
#X connect 5 0 0 0;
#X connect 6 0 4 0;
#X connect 7 0 6 0;
#X connect 11 0 13 0;
#X connect 12 0 14 0;
#X connect 13 0 12 0;
#X connect 13 1 12 1;
#X connect 14 0 15 0;
#X connect 15 0 0 0;
