#N canvas 561 226 571 352 10;
#X obj 153 202 vae_sampler~;
#X obj 153 256 *~;
#X obj 196 230 hsl 128 15 0 1 0 0 empty empty empty -2 -8 0 10 -262144
-1 -1 5200 1;
#X obj 153 282 dac~;
#X obj 153 72 openpanel;
#X msg 153 94 load \$1;
#X obj 153 49 ggee/getdir;
#X obj 153 27 bng 15 250 50 0 empty empty empty 17 7 0 10 -262144 -1
-1;
#X text 229 47 (Start in the patch's directory);
#X text 229 71 Choose a model file to load;
#X text 171 134 play x0 x1 x2 x3 nu : plays a sample with coordinates
(x0 \, x1 \, x2 \, x3) and frequency nu;
#X text 229 94 load symbol : Loads the model from a file;
#X msg 172 175 play 10 5.2 3.1 70 0.01;
#X connect 0 0 1 0;
#X connect 1 0 3 0;
#X connect 1 0 3 1;
#X connect 2 0 1 1;
#X connect 4 0 5 0;
#X connect 5 0 0 0;
#X connect 6 0 4 0;
#X connect 7 0 6 0;
#X connect 12 0 0 0;
