#N canvas 702 231 1167 785 10;
#X obj 108 190 gemwin;
#X msg 206 163 \; pd dsp 0;
#X msg 49 135 \; pd dsp 1;
#X msg 156 131 destroy;
#X obj 51 46 loadbang;
#X obj 313 211 gemhead;
#X obj 313 234 polygon_smooth;
#X obj 313 279 translate 1 0 0;
#X obj 313 328 translate 0 1 0;
#X obj 313 398 circle;
#X obj 712 97 ctlin;
#X obj 712 142 / 127;
#X obj 712 165 - 0.5;
#X obj 712 223 pack;
#X msg 712 246 \$2 \$1;
#X obj 712 188 * 10;
#X obj 712 269 route 48 49 50 51;
#X obj 710 322 s k1;
#X obj 740 322 s k2;
#X obj 770 322 s k3;
#X obj 800 322 s k4;
#X obj 434 239 r k1;
#X obj 434 287 r k2;
#X obj 256 472 gemhead;
#X obj 256 495 polygon_smooth;
#X obj 256 540 translate 1 0 0;
#X obj 256 589 translate 0 1 0;
#X obj 227 674 circle;
#X obj 377 500 r k3;
#X obj 377 548 r k4;
#X obj 567 276 notein;
#X obj 673 507 snapshot~;
#X obj 673 484 vline~;
#X obj 662 415 bng 15 250 50 0 empty empty empty 17 7 0 10 -262144
-1 -1;
#X obj 556 300 select 0;
#X obj 752 419 metro 2;
#X obj 220 633 color 0.3 0.3 1;
#X obj 313 351 color 1 0 0.7;
#X obj 568 348 loadbang;
#X msg 673 461 0.7 \, 0.1 400;
#X obj 867 130 gemhead;
#X obj 889 247 text2d;
#X msg 907 198 text ukulelatent;
#X msg 928 130 3.5;
#X obj 928 85 loadbang;
#X obj 876 169 translate 0.8 -0.9 0;
#X obj 850 356 gemhead;
#X obj 863 587 text2d;
#X msg 911 356 3.5;
#X obj 957 315 loadbang;
#X msg 880 547 text x1: \$1 x2: \$2 x3: \$3 x4: \$4;
#X obj 897 447 r k1;
#X obj 931 445 r k2;
#X obj 968 446 r k3;
#X obj 1006 448 r k4;
#X obj 926 516 pack f f f f;
#X obj 859 395 translate 0 -1 0;
#X obj 1032 484 bng 15 250 50 0 empty empty empty 17 7 0 10 -262144
-1 -1;
#X msg 60 92 destroy \, dimen 600 600 \, create \, frame 15 \, 1;
#X connect 3 0 0 0;
#X connect 3 0 1 0;
#X connect 4 0 58 0;
#X connect 5 0 6 0;
#X connect 6 0 7 0;
#X connect 7 0 8 0;
#X connect 8 0 37 0;
#X connect 10 0 11 0;
#X connect 10 1 13 1;
#X connect 11 0 12 0;
#X connect 12 0 15 0;
#X connect 13 0 14 0;
#X connect 14 0 16 0;
#X connect 15 0 13 0;
#X connect 16 0 17 0;
#X connect 16 1 18 0;
#X connect 16 2 19 0;
#X connect 16 3 20 0;
#X connect 21 0 7 1;
#X connect 22 0 8 1;
#X connect 23 0 24 0;
#X connect 24 0 25 0;
#X connect 25 0 26 0;
#X connect 26 0 36 0;
#X connect 28 0 25 1;
#X connect 29 0 26 1;
#X connect 30 1 34 0;
#X connect 31 0 9 1;
#X connect 31 0 27 1;
#X connect 32 0 31 0;
#X connect 33 0 39 0;
#X connect 33 0 35 0;
#X connect 34 1 33 0;
#X connect 35 0 31 0;
#X connect 36 0 27 0;
#X connect 37 0 9 0;
#X connect 38 0 33 0;
#X connect 39 0 32 0;
#X connect 40 0 45 0;
#X connect 42 0 41 0;
#X connect 43 0 45 1;
#X connect 44 0 43 0;
#X connect 44 0 42 0;
#X connect 45 0 41 0;
#X connect 46 0 56 0;
#X connect 48 0 56 1;
#X connect 49 0 48 0;
#X connect 49 0 50 0;
#X connect 50 0 47 0;
#X connect 51 0 55 0;
#X connect 52 0 55 1;
#X connect 52 0 57 0;
#X connect 53 0 55 2;
#X connect 53 0 57 0;
#X connect 54 0 55 3;
#X connect 54 0 57 0;
#X connect 55 0 50 0;
#X connect 56 0 47 0;
#X connect 57 0 55 0;
#X connect 58 0 0 0;
#X connect 58 0 2 0;
