#N canvas 519 154 958 555 10;
#X declare -stdlib zexy;
#X declare -path ../vae_sampler;
#X obj 153 392 vae_sampler~;
#X obj 153 459 *~;
#X obj 196 433 hsl 128 15 0 1 0 1 empty empty empty -2 -8 0 10 -262144
-1 -1 11400 1;
#X obj 153 491 dac~;
#X obj 153 72 openpanel;
#X msg 153 94 load \$1;
#X obj 153 49 ggee/getdir;
#X obj 153 27 bng 15 250 50 0 empty empty empty 17 7 0 10 -262144 -1
-1;
#X text 229 47 (Start in the patch's directory);
#X text 229 71 Choose a model file to load;
#X text 229 94 load symbol : Loads the model from a file;
#X obj 172 122 keyboard.mmb;
#X obj 172 271 spigot;
#X obj 172 195 unpack f f;
#X text 185 295 play x0 x1 x2 x3 n : plays a sample with coordinates
(x0 \, x1 \, x2 \, x3) and Midi note 'n';
#X obj 153 414 *~ 2048;
#X obj 8 47 loadbang;
#X msg 8 79 \; pd dsp 1;
#X obj 587 81 visu_latent;
#X obj 589 309 unpack f f;
#X obj 589 405 s k1;
#X obj 646 405 s k2;
#X obj 699 309 unpack f f;
#X obj 699 405 s k3;
#X obj 756 405 s k4;
#X obj 589 349 - 0.5;
#X obj 646 349 - 0.5;
#X obj 699 349 - 0.5;
#X obj 756 349 - 0.5;
#X obj 229 271 s velocity;
#X msg 587 45 open;
#X msg 637 45 close;
#X text 582 18 Open / close a Gem vizualisation of the latent coordinates
;
#X text 582 118 Alternate mouse interface if you don't have a MIDI
controller hooked up;
#X obj 241 195 notein;
#X obj 172 360 sprintf play %f %f %f %f %f;
#X obj 211 336 r k1;
#X obj 251 336 r k2;
#X obj 291 336 r k3;
#X obj 331 336 r k4;
#X obj 8 23 declare -stdlib zexy;
#X obj 589 370 * 15;
#X obj 646 370 * 15;
#X obj 699 370 * 15;
#X obj 756 370 * 15;
#X obj 589 157 xyslider;
#X obj 699 157 xyslider;
#X obj 8 5 declare -path ../vae_sampler;
#X connect 0 0 15 0;
#X connect 1 0 3 0;
#X connect 1 0 3 1;
#X connect 2 0 1 1;
#X connect 4 0 5 0;
#X connect 5 0 0 0;
#X connect 6 0 4 0;
#X connect 7 0 6 0;
#X connect 11 0 13 0;
#X connect 12 0 35 0;
#X connect 13 0 12 0;
#X connect 13 1 12 1;
#X connect 13 1 29 0;
#X connect 15 0 1 0;
#X connect 16 0 17 0;
#X connect 19 0 25 0;
#X connect 19 1 26 0;
#X connect 22 0 27 0;
#X connect 22 1 28 0;
#X connect 25 0 41 0;
#X connect 26 0 42 0;
#X connect 27 0 43 0;
#X connect 28 0 44 0;
#X connect 30 0 18 0;
#X connect 31 0 18 0;
#X connect 34 0 12 0;
#X connect 34 1 29 0;
#X connect 34 1 12 1;
#X connect 35 0 0 0;
#X connect 36 0 35 1;
#X connect 37 0 35 2;
#X connect 38 0 35 3;
#X connect 39 0 35 4;
#X connect 41 0 20 0;
#X connect 42 0 21 0;
#X connect 43 0 23 0;
#X connect 44 0 24 0;
#X connect 45 0 19 0;
#X connect 46 0 22 0;
