#N canvas 273 93 1167 785 10;
#X declare -stdlib Gem;
#X obj 60 169 gemwin;
#X msg 106 117 destroy;
#X obj 6 80 loadbang;
#X obj 392 17 ctlin;
#X obj 392 62 / 127;
#X obj 392 85 - 0.5;
#X obj 392 143 pack;
#X msg 392 166 \$2 \$1;
#X obj 392 189 route 48 49 50 51;
#X obj 390 242 s k1;
#X obj 420 242 s k2;
#X obj 450 242 s k3;
#X obj 480 242 s k4;
#X obj 16 453 r k1;
#X obj 44 477 r k2;
#X obj 92 454 r k3;
#X obj 120 474 r k4;
#X obj 112 251 notein;
#X obj 149 397 snapshot~;
#X obj 149 374 vline~;
#X obj 149 303 bng 15 250 50 0 empty empty empty 17 7 0 10 -262144
-1 -1;
#X obj 104 281 select 0;
#X obj 239 350 metro 2;
#X obj 161 281 loadbang;
#X msg 149 351 0.7 \, 0.1 400;
#X obj 384 351 gemhead;
#X obj 384 448 text2d;
#X msg 415 414 text ukulelatent;
#X msg 442 350 3.5;
#X obj 415 316 loadbang;
#X obj 384 385 translate 0.8 -0.9 0;
#X obj 592 473 gemhead;
#X obj 687 558 text2d;
#X msg 644 472 3.5;
#X obj 686 316 loadbang;
#X msg 686 451 text x1: \$1 x2: \$2 x3: \$3 x4: \$4;
#X obj 732 336 r k1;
#X obj 755 355 r k2;
#X obj 778 377 r k3;
#X obj 801 398 r k4;
#X obj 732 420 pack f f f f;
#X obj 592 504 translate 0 -1 0;
#X obj 710 399 bng 15 250 50 0 empty empty empty 17 7 0 10 -262144
-1 -1;
#X msg 60 142 destroy \, dimen 600 600 \, create \, frame 15 \, 1;
#X obj 6 19 declare -stdlib Gem;
#X obj 104 225 r velocity;
#X obj 60 55 inlet;
#X obj 60 80 route open close;
#N canvas 693 121 450 300 circle1 0;
#X obj 63 51 gemhead;
#X obj 63 74 polygon_smooth;
#X obj 63 139 translate 1 0 0;
#X obj 63 168 translate 0 1 0;
#X obj 63 288 circle;
#X obj 63 201 color 1 0 0.7;
#X obj 188 48 inlet;
#X obj 238 48 inlet;
#X obj 288 48 inlet;
#X obj 63 106 scale 0.5 0.5 1;
#X obj 96 247 * 2;
#X connect 0 0 1 0;
#X connect 1 0 9 0;
#X connect 2 0 3 0;
#X connect 3 0 5 0;
#X connect 5 0 4 0;
#X connect 6 0 2 1;
#X connect 7 0 3 1;
#X connect 8 0 10 0;
#X connect 9 0 2 0;
#X connect 10 0 4 1;
#X restore 16 506 pd circle1;
#N canvas 675 107 450 300 circle2 0;
#X obj 63 51 gemhead;
#X obj 63 74 polygon_smooth;
#X obj 63 139 translate 1 0 0;
#X obj 63 168 translate 0 1 0;
#X obj 63 288 circle;
#X obj 188 48 inlet;
#X obj 238 48 inlet;
#X obj 288 48 inlet;
#X obj 63 106 scale 0.5 0.5 1;
#X obj 96 247 * 2;
#X obj 63 201 color 0.3 0.2 1;
#X connect 0 0 1 0;
#X connect 1 0 8 0;
#X connect 2 0 3 0;
#X connect 3 0 10 0;
#X connect 5 0 2 1;
#X connect 6 0 3 1;
#X connect 7 0 9 0;
#X connect 8 0 2 0;
#X connect 9 0 4 1;
#X connect 10 0 4 0;
#X restore 92 506 pd circle2;
#X text 727 502 Print coords;
#X text 501 328 Print title;
#X text 455 138 receive midi input;
#X text 187 100 Open/close window;
#X text 40 353 Draw circles;
#X obj 392 108 * 15;
#X connect 1 0 0 0;
#X connect 2 0 43 0;
#X connect 3 0 4 0;
#X connect 3 1 6 1;
#X connect 4 0 5 0;
#X connect 5 0 55 0;
#X connect 6 0 7 0;
#X connect 7 0 8 0;
#X connect 8 0 9 0;
#X connect 8 1 10 0;
#X connect 8 2 11 0;
#X connect 8 3 12 0;
#X connect 13 0 48 0;
#X connect 14 0 48 1;
#X connect 15 0 49 0;
#X connect 16 0 49 1;
#X connect 17 1 21 0;
#X connect 18 0 48 2;
#X connect 18 0 49 2;
#X connect 19 0 18 0;
#X connect 20 0 24 0;
#X connect 20 0 22 0;
#X connect 21 1 20 0;
#X connect 22 0 18 0;
#X connect 23 0 20 0;
#X connect 24 0 19 0;
#X connect 25 0 30 0;
#X connect 27 0 26 0;
#X connect 28 0 30 1;
#X connect 29 0 28 0;
#X connect 29 0 27 0;
#X connect 30 0 26 0;
#X connect 31 0 41 0;
#X connect 33 0 41 1;
#X connect 34 0 33 0;
#X connect 34 0 35 0;
#X connect 35 0 32 0;
#X connect 36 0 40 0;
#X connect 37 0 40 1;
#X connect 37 0 42 0;
#X connect 38 0 40 2;
#X connect 38 0 42 0;
#X connect 39 0 40 3;
#X connect 39 0 42 0;
#X connect 40 0 35 0;
#X connect 41 0 32 0;
#X connect 42 0 40 0;
#X connect 43 0 0 0;
#X connect 45 0 21 0;
#X connect 46 0 47 0;
#X connect 47 0 43 0;
#X connect 47 1 1 0;
#X connect 55 0 6 0;
