#N canvas 305 311 799 443 10;
#X declare -stdlib zexy;
#X msg 308 10 1;
#X msg 354 4 0;
#X obj 300 298 outlet;
#X obj 124 77 inlet x;
#X obj 179 8 inlet y;
#X msg 342 65 get_pos;
#X obj 342 88 s \$0posr;
#N canvas 711 286 450 431 yesno 0;
#X obj 57 34 inlet x;
#X obj 49 142 t f f;
#X obj 129 142 t f f;
#X obj 51 331 == 4;
#X obj 191 55 r \$0poss;
#X obj 191 79 unpack f f;
#X obj 49 114 -;
#X obj 129 114 -;
#X obj 91 238 bondo 4;
#X obj 51 276 expr $f1 + $f2 + $f3 + $f4;
#X obj 51 303 change;
#X obj 51 357 outlet;
#X obj 57 64 unpack f f f;
#X obj 49 168 >= -0;
#X obj 76 193 <= 100;
#X obj 129 171 >= -0;
#X obj 156 193 <= 100;
#X connect 0 0 12 0;
#X connect 1 0 13 0;
#X connect 1 1 14 0;
#X connect 2 0 15 0;
#X connect 2 1 16 0;
#X connect 3 0 11 0;
#X connect 4 0 5 0;
#X connect 5 0 6 1;
#X connect 5 1 7 1;
#X connect 6 0 1 0;
#X connect 7 0 2 0;
#X connect 8 0 9 0;
#X connect 8 1 9 1;
#X connect 8 2 9 2;
#X connect 8 3 9 3;
#X connect 9 0 10 0;
#X connect 10 0 3 0;
#X connect 12 0 6 0;
#X connect 12 1 7 0;
#X connect 13 0 8 0;
#X connect 14 0 8 1;
#X connect 15 0 8 2;
#X connect 16 0 8 3;
#X restore 280 106 pd yesno;
#X obj 254 56 t a a;
#N canvas 736 102 510 686 mover 0;
#X obj -95 14 unpack f f;
#X obj -95 462 s \$0xr;
#X obj -18 446 s \$0yr;
#X obj 67 51 r \$0poss;
#X obj 67 84 unpack f f;
#X obj -97 220 -;
#X obj -20 220 -;
#X msg -95 436 pos \$1 0;
#X msg -18 424 pos 0 \$1;
#X obj -35 500 outlet;
#X obj -21 325 moses 0;
#X obj -99 326 moses 0;
#X obj -95 351 moses 101;
#X obj -18 370 moses 101;
#X obj -95 -12 inlet mouse;
#X obj -188 207 inlet number;
#X obj -187 250 unpack f f;
#X obj -18 393 t f f f;
#X obj -95 403 t f f f;
#X obj 21 500 outlet;
#X obj -100 300 t f f;
#X obj -20 294 t f f;
#X obj -143 -60 inlet click;
#X msg 28 -46 get_pos;
#X obj 11 -20 s \$0xr;
#X obj 91 -20 s \$0yr;
#X obj 11 0 r \$0xs;
#X obj 91 0 r \$0ys;
#X obj 11 23 unpack f f;
#X obj 91 23 unpack f f;
#X obj -98 107 -;
#X obj -58 -62 t b b b;
#X obj -83 84 spigot;
#X msg -58 -40 1;
#X obj -95 39 t f b f;
#X msg -76 60 0;
#X obj -41 107 -;
#X obj -26 84 spigot;
#X obj -38 39 t f b f;
#X msg -19 60 0;
#X msg -39 -40 1;
#X obj -97 198 +;
#X obj -20 195 +;
#X msg -133 351 0;
#X msg -58 375 100;
#X msg -21 347 0;
#X msg 53 383 100;
#X connect 0 0 34 0;
#X connect 0 1 38 0;
#X connect 3 0 4 0;
#X connect 4 0 5 1;
#X connect 4 1 6 1;
#X connect 5 0 20 0;
#X connect 6 0 21 0;
#X connect 7 0 1 0;
#X connect 8 0 2 0;
#X connect 10 0 45 0;
#X connect 10 1 13 0;
#X connect 11 0 43 0;
#X connect 11 1 12 0;
#X connect 12 0 18 0;
#X connect 12 1 44 0;
#X connect 13 0 17 0;
#X connect 13 1 46 0;
#X connect 14 0 0 0;
#X connect 15 0 16 0;
#X connect 16 0 20 0;
#X connect 16 1 21 0;
#X connect 17 1 8 0;
#X connect 17 2 19 0;
#X connect 18 1 7 0;
#X connect 18 2 9 0;
#X connect 20 1 11 0;
#X connect 21 1 10 0;
#X connect 22 0 31 0;
#X connect 23 0 24 0;
#X connect 23 0 25 0;
#X connect 26 0 28 0;
#X connect 27 0 29 0;
#X connect 28 0 41 1;
#X connect 29 1 42 1;
#X connect 30 0 41 0;
#X connect 31 0 33 0;
#X connect 31 1 40 0;
#X connect 31 2 23 0;
#X connect 32 0 30 1;
#X connect 33 0 32 1;
#X connect 34 0 30 0;
#X connect 34 1 35 0;
#X connect 34 2 32 0;
#X connect 35 0 32 1;
#X connect 36 0 42 0;
#X connect 37 0 36 1;
#X connect 38 0 36 0;
#X connect 38 1 39 0;
#X connect 38 2 37 0;
#X connect 39 0 37 1;
#X connect 40 0 37 1;
#X connect 41 0 5 0;
#X connect 42 0 6 0;
#X connect 43 0 18 0;
#X connect 44 0 18 0;
#X connect 45 0 17 0;
#X connect 46 0 17 0;
#X restore 187 210 pd mover;
#X obj 254 6 demux;
#X obj 252 -43 route motion mouse mouseup editmode key;
#X obj 436 6 zl rev;
#X obj 281 33 spigot;
#X obj 153 107 bondo;
#X obj 155 136 pack f f;
#X obj 260 82 spigot 1;
#X obj 232 160 spigot;
#X obj 436 49 route Control_L Control_R Shift_R Shift_L;
#N canvas 0 99 774 645 ruler 0;
#X obj 252 86 inlet onoff;
#X obj 125 58 inlet motion;
#X obj 252 107 t f f;
#X obj 162 156 t a a;
#X obj 252 190 l;
#X obj 252 224 unpack f f;
#X obj 252 251 t f f;
#X obj 309 251 t f f;
#X obj 258 283 -;
#X obj 315 283 -;
#X obj 280 341 /;
#X obj 316 305 expr ( $f1 + .01) * -1;
#X msg 254 448 0;
#X msg 284 448 1;
#X obj 252 156 metro 200;
#X obj 110 213 outlet mover2;
#X obj 77 164 outlet mover;
#X obj 146 502 outlet control;
#X obj 135 128 demux 0 1 2;
#X obj 189 307 outlet mover3;
#X obj 252 132 moses 3;
#X obj 241 392 moses -1;
#X obj 299 392 moses 1;
#X connect 0 0 2 0;
#X connect 1 0 18 0;
#X connect 2 0 20 0;
#X connect 2 1 18 1;
#X connect 3 0 15 0;
#X connect 3 1 4 1;
#X connect 4 0 5 0;
#X connect 5 0 6 0;
#X connect 5 1 7 0;
#X connect 6 0 8 1;
#X connect 6 1 8 0;
#X connect 7 0 9 1;
#X connect 7 1 9 0;
#X connect 8 0 10 0;
#X connect 9 0 11 0;
#X connect 10 0 21 0;
#X connect 11 0 10 1;
#X connect 12 0 17 0;
#X connect 13 0 17 0;
#X connect 14 0 4 0;
#X connect 18 0 16 0;
#X connect 18 1 3 0;
#X connect 18 2 19 0;
#X connect 20 0 14 0;
#X connect 21 0 12 0;
#X connect 21 1 22 0;
#X connect 22 0 13 0;
#X connect 22 1 12 0;
#X restore 232 183 pd ruler;
#X obj 436 27 route 0 1;
#N canvas 723 367 541 361 limits 0;
#X obj 58 33 inlet;
#X obj 360 35 inlet;
#X obj 212 286 pack f f;
#X obj 212 318 outlet;
#X obj 214 25 loadbang;
#X obj 214 46 t b b b b;
#X obj 171 87 f \$1;
#X obj 201 87 f \$2;
#X obj 281 87 f \$3;
#X obj 311 87 f \$4;
#X obj 177 228 +;
#X obj 192 135 spigot;
#X obj 164 108 t f f;
#X obj 192 161 -;
#X obj 177 198 * 1;
#X obj 294 228 +;
#X obj 318 133 spigot;
#X obj 281 108 t f f;
#X obj 309 163 -;
#X obj 294 198 * 1;
#X obj 226 258 bondo;
#X obj 85 85 / 100;
#X obj 387 86 expr $f1 / -100 + 1;
#X obj 201 108 t f f;
#X obj 318 108 t f f;
#X obj 58 62 t f f;
#X obj 360 60 t f f;
#X obj 47 150 pack f f;
#X obj 51 121 bondo;
#X obj 47 181 outlet;
#X connect 0 0 25 0;
#X connect 1 0 26 0;
#X connect 2 0 3 0;
#X connect 4 0 5 0;
#X connect 5 0 7 0;
#X connect 5 1 6 0;
#X connect 5 2 9 0;
#X connect 5 3 8 0;
#X connect 6 0 12 0;
#X connect 7 0 23 0;
#X connect 8 0 17 0;
#X connect 9 0 24 0;
#X connect 10 0 20 0;
#X connect 11 0 13 0;
#X connect 12 0 10 1;
#X connect 12 1 13 1;
#X connect 13 0 14 1;
#X connect 14 0 10 0;
#X connect 15 0 20 1;
#X connect 16 0 18 0;
#X connect 17 0 15 1;
#X connect 17 1 18 1;
#X connect 18 0 19 1;
#X connect 19 0 15 0;
#X connect 20 0 2 0;
#X connect 20 1 2 1;
#X connect 21 0 14 0;
#X connect 22 0 19 0;
#X connect 23 0 11 0;
#X connect 23 1 11 1;
#X connect 24 0 16 0;
#X connect 24 1 16 1;
#X connect 25 0 28 0;
#X connect 25 1 21 0;
#X connect 26 0 27 1;
#X connect 26 1 22 0;
#X connect 27 0 29 0;
#X connect 28 0 27 0;
#X restore 249 247 pd limits;
#X obj 252 -71 iemguts/receivecanvas 1;
#N canvas 534 340 450 404 color 0;
#X obj 305 102 t b f;
#X obj 239 160 +;
#X msg 239 277 color \$1;
#X obj 239 311 s \$0col;
#X obj 240 54 unpack f f;
#X obj 240 5 inlet;
#X obj 305 80 * -1;
#X obj 239 80 * -256;
#X obj 239 201 - 8.38861e+06;
#X obj 239 247 + 1;
#X obj 50 45 t b b b b b;
#X obj 50 73 symbol \$1;
#X obj 65 94 symbol \$2;
#X obj 82 115 symbol \$3;
#X obj 97 136 symbol \$4;
#X obj 113 157 symbol \$5;
#X obj 50 174 s2l;
#X obj 50 199 list trim;
#X obj 50 224 route c0 c1;
#X obj 240 30 spigot 1;
#X msg 50 247 0;
#X msg 81 247 1;
#X text 295 28 <-- Remove this 1 to change the default color setting
;
#X msg 50 278 color 22;
#X obj 25 322 s \$0xr;
#X obj 102 316 s \$0yr;
#X obj 31 -4 inlet;
#X obj 31 18 sel 0 1;
#X obj 11 45 t b b;
#X msg 124 285 color 5;
#X msg 361 257 -8.40146e+06;
#X connect 0 0 1 0;
#X connect 0 1 1 1;
#X connect 1 0 8 0;
#X connect 2 0 3 0;
#X connect 4 0 7 0;
#X connect 4 1 6 0;
#X connect 5 0 19 0;
#X connect 6 0 0 0;
#X connect 7 0 1 0;
#X connect 8 0 9 0;
#X connect 9 0 2 0;
#X connect 10 0 11 0;
#X connect 10 1 12 0;
#X connect 10 2 13 0;
#X connect 10 3 14 0;
#X connect 10 4 15 0;
#X connect 11 0 16 0;
#X connect 12 0 16 0;
#X connect 13 0 16 0;
#X connect 14 0 16 0;
#X connect 15 0 16 0;
#X connect 16 0 17 0;
#X connect 17 0 18 0;
#X connect 18 0 20 0;
#X connect 18 1 21 0;
#X connect 19 0 4 0;
#X connect 20 0 19 1;
#X connect 20 0 2 0;
#X connect 20 0 23 0;
#X connect 21 0 19 1;
#X connect 21 0 29 0;
#X connect 23 0 24 0;
#X connect 23 0 25 0;
#X connect 26 0 27 0;
#X connect 27 0 28 0;
#X connect 27 1 10 0;
#X connect 28 0 10 0;
#X connect 28 1 20 0;
#X connect 29 0 24 0;
#X connect 29 0 25 0;
#X connect 30 0 2 0;
#X restore 204 311 pd color;
#X obj 1 3 cnv 1 1 1 \$0posss \$0posr empty 20 12 0 4 -262144 -66577
0;
#X obj 8 1 cnv 9 85 1 empty \$0col empty 30 30 0 14 -131599 -262144
0;
#X obj 8 99 cnv 1 92 1 empty \$0col empty 30 30 0 14 -131599 -262144
0;
#X obj 573 96 t f f;
#N canvas 766 87 510 686 mover3 0;
#X obj -5 142 unpack f f;
#X obj -5 422 s \$0xr;
#X obj 72 386 s \$0yr;
#X obj 107 81 r \$0poss;
#X obj 107 114 unpack f f;
#X obj -7 170 -;
#X obj 70 170 -;
#X msg -5 396 pos \$1 0;
#X msg 72 364 pos 0 \$1;
#X obj 55 450 outlet;
#X obj 69 275 moses 0;
#X obj -9 276 moses 0;
#X obj -5 321 moses 101;
#X obj 72 320 moses 101;
#X obj -5 118 inlet mouse;
#X obj 72 343 t f f f;
#X obj -5 363 t f f f;
#X obj 111 450 outlet;
#X obj -10 250 t f f;
#X obj 70 244 t f f;
#X msg -27 297 0;
#X msg 38 343 100;
#X msg 63 300 0;
#X msg 130 342 100;
#X connect 0 0 5 0;
#X connect 0 1 6 0;
#X connect 3 0 4 0;
#X connect 4 0 5 1;
#X connect 4 1 6 1;
#X connect 5 0 18 0;
#X connect 6 0 19 0;
#X connect 7 0 1 0;
#X connect 8 0 2 0;
#X connect 10 0 22 0;
#X connect 10 1 13 0;
#X connect 11 0 20 0;
#X connect 11 1 12 0;
#X connect 12 0 16 0;
#X connect 12 1 21 0;
#X connect 13 0 15 0;
#X connect 13 1 23 0;
#X connect 14 0 0 0;
#X connect 15 1 8 0;
#X connect 15 2 17 0;
#X connect 16 1 7 0;
#X connect 16 2 9 0;
#X connect 18 1 11 0;
#X connect 19 1 10 0;
#X connect 20 0 16 0;
#X connect 21 0 16 0;
#X connect 22 0 15 0;
#X connect 23 0 15 0;
#X restore 326 210 pd mover3;
#X obj 381 -21 t b b b;
#X obj 265 135 f;
#X obj 480 112 * 2;
#X obj 126 46 expr ($f1 - 100) * -1;
#X obj 298 -21 t b b b b b;
#N canvas 715 107 510 686 mover2 0;
#X obj -95 14 unpack f f;
#X obj -95 462 s \$0xr;
#X obj -18 456 s \$0yr;
#X obj 67 51 r \$0poss;
#X obj 67 84 unpack f f;
#X obj -97 220 -;
#X obj -20 220 -;
#X msg -95 436 pos \$1 0;
#X msg -18 434 pos 0 \$1;
#X obj -35 500 outlet;
#X obj -21 325 moses 0;
#X obj -99 326 moses 0;
#X obj -95 351 moses 101;
#X obj -18 368 moses 101;
#X obj -95 -12 inlet mouse;
#X obj -18 403 t f f f;
#X obj -95 403 t f f f;
#X obj 21 500 outlet;
#X obj -100 300 t f f;
#X obj -20 294 t f f;
#X obj -143 -60 inlet click;
#X msg 28 -46 get_pos;
#X obj 11 -20 s \$0xr;
#X obj 91 -20 s \$0yr;
#X obj 11 0 r \$0xs;
#X obj 91 0 r \$0ys;
#X obj 11 23 unpack f f;
#X obj 91 23 unpack f f;
#X obj -98 147 -;
#X obj -58 -62 t b b b;
#X obj -83 84 spigot;
#X msg -58 -40 1;
#X obj -95 39 t f b f;
#X msg -76 60 0;
#X obj -41 147 -;
#X obj -26 84 spigot;
#X obj -38 39 t f b f;
#X msg -19 60 0;
#X msg -39 -40 1;
#X obj -97 198 +;
#X obj -20 195 +;
#X obj 214 -51 inlet control;
#X obj 214 -26 sel 0 1;
#X obj 227 72 unpack f f;
#X obj -97 122 spigot;
#X obj -41 121 spigot;
#X msg 214 3 1 0;
#X msg 242 2 0 1;
#X msg -128 349 0;
#X msg -57 381 100;
#X msg -23 347 0;
#X msg 39 393 100;
#X connect 0 0 32 0;
#X connect 0 1 36 0;
#X connect 3 0 4 0;
#X connect 4 0 5 1;
#X connect 4 1 6 1;
#X connect 5 0 18 0;
#X connect 6 0 19 0;
#X connect 7 0 1 0;
#X connect 8 0 2 0;
#X connect 10 0 50 0;
#X connect 10 1 13 0;
#X connect 11 0 48 0;
#X connect 11 1 12 0;
#X connect 12 0 16 0;
#X connect 12 1 49 0;
#X connect 13 0 15 0;
#X connect 13 1 51 0;
#X connect 14 0 0 0;
#X connect 15 1 8 0;
#X connect 15 2 17 0;
#X connect 16 1 7 0;
#X connect 16 2 9 0;
#X connect 18 1 11 0;
#X connect 19 1 10 0;
#X connect 20 0 29 0;
#X connect 21 0 22 0;
#X connect 21 0 23 0;
#X connect 24 0 26 0;
#X connect 25 0 27 0;
#X connect 26 0 39 1;
#X connect 27 1 40 1;
#X connect 28 0 39 0;
#X connect 29 0 31 0;
#X connect 29 1 38 0;
#X connect 29 2 21 0;
#X connect 30 0 28 1;
#X connect 31 0 30 1;
#X connect 32 0 44 0;
#X connect 32 1 33 0;
#X connect 32 2 30 0;
#X connect 33 0 30 1;
#X connect 34 0 40 0;
#X connect 35 0 34 1;
#X connect 36 0 45 0;
#X connect 36 1 37 0;
#X connect 36 2 35 0;
#X connect 37 0 35 1;
#X connect 38 0 35 1;
#X connect 39 0 5 0;
#X connect 40 0 6 0;
#X connect 41 0 42 0;
#X connect 42 0 46 0;
#X connect 42 1 47 0;
#X connect 43 0 44 1;
#X connect 43 1 45 1;
#X connect 44 0 28 0;
#X connect 45 0 34 0;
#X connect 46 0 43 0;
#X connect 47 0 43 0;
#X connect 48 0 16 0;
#X connect 49 0 16 0;
#X connect 50 0 15 0;
#X connect 51 0 15 0;
#X restore 247 206 pd mover2;
#X obj 479 137 t f f;
#X obj 1 3 cnv 15 99 95 empty \$0col empty 30 30 0 14 -131599 -262144
0;
#X obj 32 0 cnv 1 1 100 \$0xs \$0xr empty 20 12 0 14 -262131 -262144
0;
#X obj 0 57 cnv 1 100 1 \$0ys \$0yr empty 20 12 0 14 -262131 -262144
0;
#X obj 520 177 r \$0posss;
#X obj 532 272 s \$0poss;
#X obj 520 202 unpack f f;
#X obj 577 225 - 2;
#X obj 532 248 pack f f;
#X obj 204 268 loadbang;
#X text -41 288 Change to 0 to change color default -->;
#X msg 204 288 1;
#X text -103 -6 canvas here! -->;
#X text 524 341 v1.0 \, Liam Goodacre \, 2014;
#X text 490 -15 change these keys if using a Mac.;
#X text 559 -4 |;
#X text 559 6 |;
#X text 559 15 |;
#X text 559 25 |;
#X text 559 37 *;
#X obj 18 -55 declare -stdlib zexy;
#X connect 0 0 16 1;
#X connect 1 0 16 1;
#X connect 3 0 14 0;
#X connect 4 0 32 0;
#X connect 5 0 6 0;
#X connect 7 0 30 1;
#X connect 8 0 16 0;
#X connect 8 1 7 0;
#X connect 9 0 21 0;
#X connect 9 1 21 1;
#X connect 10 0 8 0;
#X connect 10 1 13 0;
#X connect 11 0 10 0;
#X connect 11 1 33 0;
#X connect 11 2 29 0;
#X connect 11 3 10 1;
#X connect 11 4 12 0;
#X connect 12 0 20 0;
#X connect 13 0 8 0;
#X connect 14 0 15 0;
#X connect 14 1 15 1;
#X connect 15 0 9 0;
#X connect 16 0 17 0;
#X connect 17 0 19 0;
#X connect 18 0 31 0;
#X connect 18 1 31 0;
#X connect 18 2 27 0;
#X connect 18 3 27 0;
#X connect 19 0 9 2;
#X connect 19 1 34 1;
#X connect 19 2 34 2;
#X connect 19 3 28 0;
#X connect 20 0 18 0;
#X connect 20 1 18 0;
#X connect 21 0 23 1;
#X connect 21 1 2 0;
#X connect 22 0 11 0;
#X connect 27 0 19 1;
#X connect 27 1 13 1;
#X connect 28 0 21 0;
#X connect 28 1 21 1;
#X connect 29 1 1 0;
#X connect 29 2 30 0;
#X connect 30 0 17 1;
#X connect 31 0 35 0;
#X connect 32 0 14 1;
#X connect 33 0 9 1;
#X connect 33 1 34 0;
#X connect 33 2 30 0;
#X connect 33 3 5 0;
#X connect 33 4 0 0;
#X connect 34 0 21 0;
#X connect 34 1 21 1;
#X connect 35 0 13 1;
#X connect 35 1 19 1;
#X connect 39 0 41 0;
#X connect 41 0 43 0;
#X connect 41 1 42 0;
#X connect 42 0 43 1;
#X connect 43 0 40 0;
#X connect 44 0 46 0;
#X connect 44 0 33 0;
#X connect 46 0 23 0;
#X coords 0 -1 1 1 101 101 2 0 0;
