#N canvas 421 60 606 493 10;
#X obj 13 12 cnv 12 5 5 empty \$0-low.label.r 60 0 7 0 9 -262144 -1
0;
#X obj 21 28 vsl 9 30 0 127 0 0 \$0-Db0 \$0-Db0.r empty 0 -9 0 10 -1
-1 -1 0 0;
#X obj 35 28 vsl 9 30 0 127 0 0 \$0-Eb0 \$0-Eb0.r empty 0 -9 0 10 -1
-1 -1 0 0;
#X obj 59 28 vsl 9 30 0 127 0 0 \$0-Gb0 \$0-Gb0.r empty 0 -9 0 10 -1
-1 -1 500 0;
#X obj 73 28 vsl 9 30 0 127 0 0 \$0-Ab0 \$0-Ab0.r empty 0 -9 0 10 -1
-1 -1 0 0;
#X obj 87 28 vsl 9 30 0 127 0 0 \$0-Bb0 \$0-Bb0.r empty 0 -9 0 10 -1
-1 -1 0 0;
#X obj 97 12 cnv 12 5 5 empty \$0-high.label.r 72 2 7 0 9 -262144 -1
0;
#X obj 33 14 hsl 60 10 0 10 0 0 \$0-octave.slider \$0-octave.slider.r
octave 15 5 0 9 -262144 -1 -1 2950 1;
#X obj 169 21 loadbang;
#X msg 169 44 5;
#X obj 169 70 s \$0-octave.slider.r;
#X obj 266 183 r \$0-octave.slider;
#N canvas 46 127 1212 596 key.numbers 0;
#X obj 691 53 r \$0-C1;
#X obj 641 53 r \$0-B0;
#X obj 591 33 r \$0-Bb0;
#X obj 541 53 r \$0-A0;
#X obj 491 33 r \$0-Ab0;
#X obj 441 53 r \$0-G0;
#X obj 391 33 r \$0-Gb0;
#X obj 341 53 r \$0-F0;
#X obj 291 53 r \$0-E0;
#X obj 241 33 r \$0-Eb0;
#X obj 191 53 r \$0-D0;
#X obj 141 33 r \$0-Db0;
#X obj 91 53 r \$0-C0;
#X obj 879 197 MouseState;
#X msg 91 252 0 \$1;
#X msg 141 252 1 \$1;
#X msg 191 252 2 \$1;
#X msg 241 252 3 \$1;
#X msg 291 252 4 \$1;
#X msg 341 252 5 \$1;
#X msg 391 252 6 \$1;
#X msg 441 252 7 \$1;
#X msg 491 252 8 \$1;
#X msg 541 252 9 \$1;
#X msg 591 252 10 \$1;
#X msg 641 252 11 \$1;
#X msg 691 252 12 \$1;
#X obj 879 233 == 0;
#X obj 884 409 s \$0-button.state;
#N canvas 0 22 506 467 filter 0;
#X obj 91 206 spigot 1;
#X obj 136 174 r \$0-button.state;
#X obj 64 82 inlet;
#X obj 91 277 outlet;
#X obj 64 118 t b f;
#X obj 64 154 s \$0-poll;
#X obj 91 244 int;
#X connect 0 0 6 0;
#X connect 1 0 0 1;
#X connect 2 0 4 0;
#X connect 4 0 5 0;
#X connect 4 1 0 0;
#X connect 6 0 3 0;
#X restore 91 149 pd filter;
#X obj 879 132 r \$0-poll;
#X msg 879 154 poll;
#X msg 830 155 nopoll;
#X msg 415 391 set \$1 0;
#X msg 415 425 4 0;
#X obj 375 350 list;
#X obj 375 468 outlet;
#X obj 818 373 sel 1;
#X obj 907 342 bng 15 250 50 0 empty empty empty 17 7 0 10 -262144
-1 -1;
#N canvas 0 22 506 467 filter 0;
#X obj 91 206 spigot 1;
#X obj 136 174 r \$0-button.state;
#X obj 64 82 inlet;
#X obj 91 277 outlet;
#X obj 64 118 t b f;
#X obj 64 154 s \$0-poll;
#X obj 91 244 int;
#X connect 0 0 6 0;
#X connect 1 0 0 1;
#X connect 2 0 4 0;
#X connect 4 0 5 0;
#X connect 4 1 0 0;
#X connect 6 0 3 0;
#X restore 141 169 pd filter;
#N canvas 0 22 506 467 filter 0;
#X obj 91 206 spigot 1;
#X obj 136 174 r \$0-button.state;
#X obj 64 82 inlet;
#X obj 91 277 outlet;
#X obj 64 118 t b f;
#X obj 64 154 s \$0-poll;
#X obj 91 244 int;
#X connect 0 0 6 0;
#X connect 1 0 0 1;
#X connect 2 0 4 0;
#X connect 4 0 5 0;
#X connect 4 1 0 0;
#X connect 6 0 3 0;
#X restore 191 149 pd filter;
#N canvas 0 22 506 467 filter 0;
#X obj 91 206 spigot 1;
#X obj 136 174 r \$0-button.state;
#X obj 64 82 inlet;
#X obj 91 277 outlet;
#X obj 64 118 t b f;
#X obj 64 154 s \$0-poll;
#X obj 91 244 int;
#X connect 0 0 6 0;
#X connect 1 0 0 1;
#X connect 2 0 4 0;
#X connect 4 0 5 0;
#X connect 4 1 0 0;
#X connect 6 0 3 0;
#X restore 241 169 pd filter;
#N canvas 0 22 506 467 filter 0;
#X obj 91 206 spigot 1;
#X obj 136 174 r \$0-button.state;
#X obj 64 82 inlet;
#X obj 91 277 outlet;
#X obj 64 118 t b f;
#X obj 64 154 s \$0-poll;
#X obj 91 244 int;
#X connect 0 0 6 0;
#X connect 1 0 0 1;
#X connect 2 0 4 0;
#X connect 4 0 5 0;
#X connect 4 1 0 0;
#X connect 6 0 3 0;
#X restore 291 149 pd filter;
#N canvas 0 22 506 467 filter 0;
#X obj 91 206 spigot 1;
#X obj 136 174 r \$0-button.state;
#X obj 64 82 inlet;
#X obj 91 277 outlet;
#X obj 64 118 t b f;
#X obj 64 154 s \$0-poll;
#X obj 91 244 int;
#X connect 0 0 6 0;
#X connect 1 0 0 1;
#X connect 2 0 4 0;
#X connect 4 0 5 0;
#X connect 4 1 0 0;
#X connect 6 0 3 0;
#X restore 341 169 pd filter;
#N canvas 0 22 506 467 filter 0;
#X obj 91 206 spigot 1;
#X obj 136 174 r \$0-button.state;
#X obj 64 82 inlet;
#X obj 91 277 outlet;
#X obj 64 118 t b f;
#X obj 64 154 s \$0-poll;
#X obj 91 244 int;
#X connect 0 0 6 0;
#X connect 1 0 0 1;
#X connect 2 0 4 0;
#X connect 4 0 5 0;
#X connect 4 1 0 0;
#X connect 6 0 3 0;
#X restore 391 149 pd filter;
#N canvas 0 22 506 467 filter 0;
#X obj 91 206 spigot 1;
#X obj 136 174 r \$0-button.state;
#X obj 64 82 inlet;
#X obj 91 277 outlet;
#X obj 64 118 t b f;
#X obj 64 154 s \$0-poll;
#X obj 91 244 int;
#X connect 0 0 6 0;
#X connect 1 0 0 1;
#X connect 2 0 4 0;
#X connect 4 0 5 0;
#X connect 4 1 0 0;
#X connect 6 0 3 0;
#X restore 441 169 pd filter;
#N canvas 0 22 506 467 filter 0;
#X obj 91 206 spigot 1;
#X obj 136 174 r \$0-button.state;
#X obj 64 82 inlet;
#X obj 91 277 outlet;
#X obj 64 118 t b f;
#X obj 64 154 s \$0-poll;
#X obj 91 244 int;
#X connect 0 0 6 0;
#X connect 1 0 0 1;
#X connect 2 0 4 0;
#X connect 4 0 5 0;
#X connect 4 1 0 0;
#X connect 6 0 3 0;
#X restore 491 149 pd filter;
#N canvas 0 22 506 467 filter 0;
#X obj 91 206 spigot 1;
#X obj 136 174 r \$0-button.state;
#X obj 64 82 inlet;
#X obj 91 277 outlet;
#X obj 64 118 t b f;
#X obj 64 154 s \$0-poll;
#X obj 91 244 int;
#X connect 0 0 6 0;
#X connect 1 0 0 1;
#X connect 2 0 4 0;
#X connect 4 0 5 0;
#X connect 4 1 0 0;
#X connect 6 0 3 0;
#X restore 541 169 pd filter;
#N canvas 0 22 506 467 filter 0;
#X obj 91 206 spigot 1;
#X obj 136 174 r \$0-button.state;
#X obj 64 82 inlet;
#X obj 91 277 outlet;
#X obj 64 118 t b f;
#X obj 64 154 s \$0-poll;
#X obj 91 244 int;
#X connect 0 0 6 0;
#X connect 1 0 0 1;
#X connect 2 0 4 0;
#X connect 4 0 5 0;
#X connect 4 1 0 0;
#X connect 6 0 3 0;
#X restore 591 149 pd filter;
#N canvas 0 22 506 467 filter 0;
#X obj 91 206 spigot 1;
#X obj 136 174 r \$0-button.state;
#X obj 64 82 inlet;
#X obj 91 277 outlet;
#X obj 64 118 t b f;
#X obj 64 154 s \$0-poll;
#X obj 91 244 int;
#X connect 0 0 6 0;
#X connect 1 0 0 1;
#X connect 2 0 4 0;
#X connect 4 0 5 0;
#X connect 4 1 0 0;
#X connect 6 0 3 0;
#X restore 641 169 pd filter;
#N canvas 0 22 506 467 filter 0;
#X obj 91 206 spigot 1;
#X obj 136 174 r \$0-button.state;
#X obj 64 82 inlet;
#X obj 91 277 outlet;
#X obj 64 118 t b f;
#X obj 64 154 s \$0-poll;
#X obj 91 244 int;
#X connect 0 0 6 0;
#X connect 1 0 0 1;
#X connect 2 0 4 0;
#X connect 4 0 5 0;
#X connect 4 1 0 0;
#X connect 6 0 3 0;
#X restore 691 149 pd filter;
#X obj 878 298 spigot;
#X msg 849 266 0;
#X msg 980 221 1;
#X obj 950 195 t b b;
#X msg 946 223 0;
#X text 990 192 <-- workaround for mouse button bug;
#X connect 0 0 50 0;
#X connect 1 0 49 0;
#X connect 2 0 48 0;
#X connect 3 0 47 0;
#X connect 4 0 46 0;
#X connect 5 0 45 0;
#X connect 6 0 44 0;
#X connect 7 0 43 0;
#X connect 8 0 42 0;
#X connect 9 0 41 0;
#X connect 10 0 40 0;
#X connect 11 0 39 0;
#X connect 12 0 29 0;
#X connect 13 0 27 0;
#X connect 14 0 35 0;
#X connect 15 0 35 0;
#X connect 16 0 35 0;
#X connect 17 0 35 0;
#X connect 18 0 35 0;
#X connect 19 0 35 0;
#X connect 20 0 35 0;
#X connect 21 0 35 0;
#X connect 22 0 35 0;
#X connect 23 0 35 0;
#X connect 24 0 35 0;
#X connect 25 0 35 0;
#X connect 26 0 35 0;
#X connect 27 0 51 0;
#X connect 29 0 14 0;
#X connect 30 0 31 0;
#X connect 30 0 54 0;
#X connect 31 0 13 0;
#X connect 32 0 13 0;
#X connect 33 0 34 0;
#X connect 34 0 36 0;
#X connect 35 0 33 0;
#X connect 35 0 36 0;
#X connect 37 0 32 0;
#X connect 37 0 34 0;
#X connect 37 0 52 0;
#X connect 39 0 15 0;
#X connect 40 0 16 0;
#X connect 41 0 17 0;
#X connect 42 0 18 0;
#X connect 43 0 19 0;
#X connect 44 0 20 0;
#X connect 45 0 21 0;
#X connect 46 0 22 0;
#X connect 47 0 23 0;
#X connect 48 0 24 0;
#X connect 49 0 25 0;
#X connect 50 0 26 0;
#X connect 51 0 37 0;
#X connect 51 0 28 0;
#X connect 51 0 38 0;
#X connect 52 0 51 1;
#X connect 53 0 51 1;
#X connect 54 0 55 0;
#X connect 54 1 53 0;
#X connect 55 0 51 0;
#X restore 146 151 pd key.numbers;
#X msg 64 370 72 0;
#X obj 63 345 prepend set;
#X obj 263 213 int;
#X obj 260 249 * 12;
#X obj 161 224 unpack f f;
#X obj 165 272 + 60;
#X obj 165 334 pack f f;
#X obj 303 362 makefilename %d;
#X msg 303 393 label \$1;
#X obj 303 424 s \$0-low.label.r;
#X obj 433 336 + 12;
#X obj 433 362 makefilename %d;
#X msg 433 393 label \$1;
#X obj 433 424 s \$0-high.label.r;
#X obj 165 425 outlet;
#X text 523 265 .mmb;
#X obj 13 28 vsl 13 40 0 127 0 0 \$0-C0 \$0-C0.r empty 0 -9 0 10 -262144
-262144 -1 0 0;
#X obj 26 28 vsl 13 40 0 127 0 0 \$0-D0 \$0-D0.r empty 0 -9 0 10 -262144
-262144 -1 0 0;
#X obj 39 28 vsl 13 40 0 127 0 0 \$0-E0 \$0-E0.r empty 0 -9 0 10 -262144
-262144 -1 600 0;
#X obj 52 28 vsl 13 40 0 127 0 0 \$0-F0 \$0-F0.r empty 0 -9 0 10 -262144
-262144 -1 0 0;
#X obj 65 28 vsl 13 40 0 127 0 0 \$0-G0 \$0-G0.r empty 0 -9 0 10 -262144
-262144 -1 600 0;
#X obj 78 28 vsl 13 40 0 127 0 0 \$0-A0 \$0-A0.r empty 0 -9 0 10 -262144
-262144 -1 0 0;
#X obj 91 28 vsl 13 40 0 127 0 0 \$0-B0 \$0-B0.r empty 0 -9 0 10 -262144
-262144 -1 0 0;
#X obj 104 28 vsl 13 40 0 127 0 0 \$0-C1 \$0-C1.r empty 0 -9 0 10 -262144
-262144 -1 0 0;
#X obj 21 26 cnv 9 9 35 empty empty empty 20 12 0 14 -1 -66577 0;
#X obj 35 26 cnv 9 9 35 empty empty empty 20 12 0 14 -1 -66577 0;
#X obj 59 26 cnv 9 9 35 empty empty empty 20 12 0 14 -1 -66577 0;
#X obj 73 26 cnv 9 9 35 empty empty empty 20 12 0 14 -1 -66577 0;
#X obj 87 26 cnv 9 9 35 empty empty empty 20 12 0 14 -1 -66577 0;
#X connect 8 0 9 0;
#X connect 9 0 10 0;
#X connect 11 0 15 0;
#X connect 12 0 17 0;
#X connect 14 0 13 0;
#X connect 15 0 16 0;
#X connect 16 0 18 1;
#X connect 16 0 23 0;
#X connect 16 0 20 0;
#X connect 17 0 18 0;
#X connect 17 1 19 1;
#X connect 18 0 19 0;
#X connect 19 0 14 0;
#X connect 19 0 27 0;
#X connect 20 0 21 0;
#X connect 21 0 22 0;
#X connect 23 0 24 0;
#X connect 24 0 25 0;
#X connect 25 0 26 0;
#X coords 0 -1 1 1 110 64 2 10 10;
